# xmcd
#
# Track frame offsets:
#	255
#	14912
#	37223
#	61732
#	91346
#	122523
#	131456
#	175440
#	196525
#	211250
#	226659
#	243122
#	274918
#	297071
#	315514
#	329125
#
# Disc length: 4597 seconds
#
# Revision: 0
# Processed by: cddbd v1.5.2PL0 Copyright (c) Steve Scherf et al.
# Submitted via: EasyCDDAExtractor 16.1.0.1
#
DISCID=e211f210
DTITLE=Carson - Blown [2016 Remastered and Expanded}
DYEAR=1972
DGENRE=Blues/Boogie
TTITLE0=Carson - Rock And Roll Game
TTITLE1=Carson - Better Times Will Come About
TTITLE2=Carson - Sunday In The City
TTITLE3=Carson - Banana Power
TTITLE4=Carson - A Boogie
TTITLE5=Carson - Let Me Sleep
TTITLE6=Carson - Up In Queensland
TTITLE7=Carson - Boogie Pt. 1 [Bonus Track]
TTITLE8=Carson - Boogie Pt. 2 [Bonus Track]
TTITLE9=Carson - Travelling South [Bonus Track]
TTITLE10=Carson - Moonshine [Bonus Track]
TTITLE11=Carson - Don't Worry [Bonus Track]
TTITLE12=Meating - Bad Luck Feeling [Bonus Track]
TTITLE13=Meating - Back Home [Bonus Track]
TTITLE14=Carson County band - On The Highway [Bonus Track]
TTITLE15=Carson County Band - Resting Place [Bonus Track]
EXTD=
EXTT0=
EXTT1=
EXTT2=
EXTT3=
EXTT4=
EXTT5=
EXTT6=
EXTT7=
EXTT8=
EXTT9=
EXTT10=
EXTT11=
EXTT12=
EXTT13=
EXTT14=
EXTT15=
PLAYORDER=
